<svg data-v-423bf9ae="" xmlns="http://www.w3.org/2000/svg" viewBox="0 0 354.480264534826 60" class="font"><!----><!----><defs data-v-423bf9ae=""><linearGradient data-v-423bf9ae="" gradientTransform="rotate(25)" id="51aae9d4-6845-4eda-ad3f-e7858e2153c1" x1="0%" y1="0%" x2="100%" y2="0%"><stop data-v-423bf9ae="" offset="0%" style="stop-color: rgb(8, 199, 214); stop-opacity: 1;"></stop><stop data-v-423bf9ae="" offset="100%" style="stop-color: rgb(2, 2, 62); stop-opacity: 1;"></stop></linearGradient></defs><g data-v-423bf9ae="" id="e78c01c6-ffe0-4f87-a8e9-6da1f275bf9c" fill="url(#51aae9d4-6845-4eda-ad3f-e7858e2153c1)" transform="matrix(6.00712209146892,0,0,6.00712209146892,-4.985908549049526,-22.344991487512665)"><path d="M2.67 3.72L2.67 11.75L6.03 11.75L6.03 13.52L0.83 13.52L0.83 5.19L0.83 5.19Q0.83 4.49 1.33 4.10L1.33 4.10L1.33 4.10Q1.83 3.71 2.67 3.72L2.67 3.72ZM12.38 10.72L12.38 10.72L12.38 10.72Q11.62 10.92 11.00 10.86L11.00 10.86L11.00 10.86Q10.37 10.81 9.97 10.56L9.97 10.56L9.97 10.56Q9.58 10.32 9.44 9.91L9.44 9.91L9.44 9.91Q9.31 9.49 9.52 8.97L9.52 8.97L9.52 8.97Q9.95 9.34 10.53 9.37L10.53 9.37L10.53 9.37Q11.10 9.41 11.63 9.35L11.63 9.35L11.63 9.35Q12.08 9.31 12.31 9.16L12.31 9.16L12.31 9.16Q12.54 9.00 12.60 8.80L12.60 8.80L12.60 8.80Q12.66 8.60 12.56 8.37L12.56 8.37L12.56 8.37Q12.46 8.15 12.24 7.97L12.24 7.97L12.24 7.97Q12.03 7.78 11.71 7.67L11.71 7.67L11.71 7.67Q11.40 7.56 11.02 7.57L11.02 7.57L11.02 7.57Q10.61 7.60 10.25 7.77L10.25 7.77L10.25 7.77Q9.88 7.94 9.60 8.23L9.60 8.23L9.60 8.23Q9.32 8.53 9.16 8.92L9.16 8.92L9.16 8.92Q8.99 9.31 8.97 9.79L8.97 9.79L8.97 9.79Q8.96 10.18 9.06 10.56L9.06 10.56L9.06 10.56Q9.17 10.93 9.38 11.25L9.38 11.25L9.38 11.25Q9.59 11.56 9.88 11.78L9.88 11.78L9.88 11.78Q10.18 12.00 10.56 12.05L10.56 12.05L10.56 12.05Q11.09 12.15 11.65 11.98L11.65 11.98L11.65 11.98Q12.21 11.82 12.64 11.37L12.64 11.37L14.11 12.08L14.11 12.08Q13.54 12.94 12.75 13.31L12.75 13.31L12.75 13.31Q11.97 13.68 10.96 13.68L10.96 13.68L10.96 13.68Q10.02 13.68 9.32 13.35L9.32 13.35L9.32 13.35Q8.61 13.02 8.14 12.47L8.14 12.47L8.14 12.47Q7.67 11.93 7.44 11.24L7.44 11.24L7.44 11.24Q7.21 10.54 7.22 9.82L7.22 9.82L7.22 9.82Q7.24 9.10 7.50 8.41L7.50 8.41L7.50 8.41Q7.77 7.71 8.27 7.18L8.27 7.18L8.27 7.18Q8.83 6.58 9.58 6.33L9.58 6.33L9.58 6.33Q10.33 6.08 11.12 6.08L11.12 6.08L11.12 6.08Q11.98 6.08 12.61 6.37L12.61 6.37L12.61 6.37Q13.24 6.66 13.64 7.12L13.64 7.12L13.64 7.12Q14.03 7.57 14.15 8.13L14.15 8.13L14.15 8.13Q14.28 8.68 14.13 9.20L14.13 9.20L14.13 9.20Q13.99 9.72 13.55 10.13L13.55 10.13L13.55 10.13Q13.12 10.54 12.38 10.72ZM17.22 6.27L17.22 7.11L17.22 7.11Q17.33 6.86 17.56 6.68L17.56 6.68L17.56 6.68Q17.79 6.50 18.07 6.37L18.07 6.37L18.07 6.37Q18.35 6.24 18.65 6.17L18.65 6.17L18.65 6.17Q18.94 6.10 19.19 6.09L19.19 6.09L19.19 6.09Q19.73 6.06 20.24 6.24L20.24 6.24L20.24 6.24Q20.76 6.41 21.20 6.85L21.20 6.85L21.20 6.85Q21.83 7.50 21.83 8.74L21.83 8.74L21.83 13.52L20.03 13.52L20.03 13.52Q20.03 13.29 20.04 12.88L20.04 12.88L20.04 12.88Q20.05 12.47 20.05 11.99L20.05 11.99L20.05 11.99Q20.05 11.51 20.05 10.99L20.05 10.99L20.05 10.99Q20.05 10.47 20.03 10.01L20.03 10.01L20.03 10.01Q20.02 9.55 19.99 9.18L19.99 9.18L19.99 9.18Q19.96 8.82 19.92 8.65L19.92 8.65L19.92 8.65Q19.81 8.20 19.50 7.98L19.50 7.98L19.50 7.98Q19.18 7.76 18.82 7.76L18.82 7.76L18.82 7.76Q18.34 7.76 18.07 8.02L18.07 8.02L18.07 8.02Q17.81 8.27 17.81 8.69L17.81 8.69L17.81 8.69Q17.64 8.64 17.47 8.46L17.47 8.46L17.47 8.46Q17.30 8.29 17.22 8.09L17.22 8.09L17.22 8.47L17.22 13.52L15.41 13.52L15.41 6.27L17.22 6.27ZM28.48 13.51L28.48 12.74L28.48 12.74Q27.96 13.24 27.35 13.48L27.35 13.48L27.35 13.48Q26.74 13.71 26.12 13.69L26.12 13.69L26.12 13.69Q25.51 13.66 24.93 13.41L24.93 13.41L24.93 13.41Q24.36 13.15 23.92 12.66L23.92 12.66L23.92 12.66Q23.48 12.18 23.21 11.51L23.21 11.51L23.21 11.51Q22.95 10.84 22.95 9.98L22.95 9.98L22.95 9.98Q22.95 9.16 23.23 8.47L23.23 8.47L23.23 8.47Q23.52 7.78 24.00 7.29L24.00 7.29L24.00 7.29Q24.49 6.79 25.10 6.52L25.10 6.52L25.10 6.52Q25.72 6.26 26.39 6.29L26.39 6.29L26.39 6.29Q27.09 6.31 27.49 6.58L27.49 6.58L27.49 6.58Q27.89 6.85 28.06 7.20L28.06 7.20L28.06 7.20Q28.24 7.55 28.23 7.90L28.23 7.90L28.23 7.90Q28.22 8.26 28.10 8.48L28.10 8.48L28.10 8.48Q27.86 8.15 27.43 8.03L27.43 8.03L27.43 8.03Q27.01 7.91 26.63 7.91L26.63 7.91L26.63 7.91Q26.00 7.91 25.57 8.22L25.57 8.22L25.57 8.22Q25.14 8.53 24.93 8.99L24.93 8.99L24.93 8.99Q24.71 9.45 24.71 9.99L24.71 9.99L24.71 9.99Q24.71 10.53 24.92 10.99L24.92 10.99L24.92 10.99Q25.13 11.45 25.55 11.76L25.55 11.76L25.55 11.76Q25.97 12.07 26.61 12.07L26.61 12.07L26.61 12.07Q27.16 12.07 27.52 11.82L27.52 11.82L27.52 11.82Q27.87 11.58 28.08 11.19L28.08 11.19L28.08 11.19Q28.29 10.79 28.38 10.31L28.38 10.31L28.38 10.31Q28.48 9.83 28.48 9.35L28.48 9.35L28.48 3.74L28.48 3.74Q29.30 3.77 29.77 4.19L29.77 4.19L29.77 4.19Q30.24 4.61 30.24 5.17L30.24 5.17L30.24 13.51L28.48 13.51ZM33.61 3.72L33.61 11.75L36.97 11.75L36.97 13.52L31.77 13.52L31.77 5.19L31.77 5.19Q31.77 4.49 32.27 4.10L32.27 4.10L32.27 4.10Q32.77 3.71 33.61 3.72L33.61 3.72ZM41.89 6.10L41.89 6.10L41.89 6.10Q42.99 6.10 43.85 6.64L43.85 6.64L43.85 6.64Q44.72 7.17 45.21 7.99L45.21 7.99L45.21 7.99Q45.70 8.82 45.73 9.83L45.73 9.83L45.73 9.83Q45.77 10.84 45.22 11.80L45.22 11.80L45.22 11.80Q44.76 12.60 44.02 13.08L44.02 13.08L44.02 13.08Q43.27 13.55 42.43 13.67L42.43 13.67L42.43 13.67Q41.59 13.79 40.75 13.53L40.75 13.53L40.75 13.53Q39.90 13.27 39.23 12.60L39.23 12.60L39.23 12.60Q38.47 11.83 38.22 10.82L38.22 10.82L38.22 10.82Q37.97 9.81 38.26 8.81L38.26 8.81L38.26 8.81Q38.39 8.40 38.67 8.13L38.67 8.13L38.67 8.13Q38.96 7.87 39.33 7.74L39.33 7.74L39.33 7.74Q39.69 7.62 40.08 7.63L40.08 7.63L40.08 7.63Q40.47 7.64 40.81 7.79L40.81 7.79L40.81 7.79Q41.15 7.94 41.38 8.21L41.38 8.21L41.38 8.21Q41.61 8.48 41.65 8.88L41.65 8.88L41.65 8.88Q41.44 8.72 41.15 8.71L41.15 8.71L41.15 8.71Q40.85 8.71 40.58 8.84L40.58 8.84L40.58 8.84Q40.31 8.97 40.12 9.25L40.12 9.25L40.12 9.25Q39.93 9.52 39.93 9.93L39.93 9.93L39.93 9.93Q39.93 10.63 40.22 11.09L40.22 11.09L40.22 11.09Q40.52 11.55 40.96 11.78L40.96 11.78L40.96 11.78Q41.40 12.01 41.91 12.01L41.91 12.01L41.91 12.01Q42.42 12.01 42.86 11.77L42.86 11.77L42.86 11.77Q43.30 11.54 43.60 11.07L43.60 11.07L43.60 11.07Q43.89 10.60 43.89 9.90L43.89 9.90L43.89 9.90Q43.89 9.35 43.69 8.93L43.69 8.93L43.69 8.93Q43.50 8.51 43.17 8.24L43.17 8.24L43.17 8.24Q42.84 7.97 42.41 7.86L42.41 7.86L42.41 7.86Q41.97 7.76 41.48 7.85L41.48 7.85L41.48 7.85Q41.27 7.60 40.97 7.46L40.97 7.46L40.97 7.46Q40.67 7.31 40.32 7.26L40.32 7.26L40.32 7.26Q39.97 7.21 39.62 7.27L39.62 7.27L39.62 7.27Q39.27 7.34 38.96 7.52L38.96 7.52L38.96 7.52Q39.52 6.85 40.26 6.48L40.26 6.48L40.26 6.48Q41.01 6.10 41.89 6.10ZM46.86 13.52L46.86 6.24L48.43 6.24L48.43 7.17L48.43 7.17Q48.66 6.68 49.04 6.39L49.04 6.39L49.04 6.39Q49.41 6.10 49.85 6.08L49.85 6.08L49.85 6.08Q50.44 6.03 50.81 6.29L50.81 6.29L50.81 6.29Q51.17 6.55 51.32 6.92L51.32 6.92L51.32 6.92Q51.46 7.29 51.39 7.68L51.39 7.68L51.39 7.68Q51.32 8.06 51.02 8.29L51.02 8.29L51.02 8.29Q50.89 7.94 50.53 7.83L50.53 7.83L50.53 7.83Q50.18 7.73 49.78 7.86L49.78 7.86L49.78 7.86Q49.39 7.99 49.08 8.36L49.08 8.36L49.08 8.36Q48.76 8.72 48.71 9.31L48.71 9.31L48.71 9.31Q48.68 9.65 48.68 9.98L48.68 9.98L48.68 9.98Q48.68 10.30 48.68 10.58L48.68 10.58L48.68 13.52L46.86 13.52ZM58.07 13.51L58.07 12.74L58.07 12.74Q57.55 13.24 56.95 13.48L56.95 13.48L56.95 13.48Q56.34 13.71 55.72 13.69L55.72 13.69L55.72 13.69Q55.10 13.66 54.53 13.41L54.53 13.41L54.53 13.41Q53.96 13.15 53.52 12.66L53.52 12.66L53.52 12.66Q53.07 12.18 52.81 11.51L52.81 11.51L52.81 11.51Q52.54 10.84 52.54 9.98L52.54 9.98L52.54 9.98Q52.54 9.16 52.83 8.47L52.83 8.47L52.83 8.47Q53.12 7.78 53.60 7.29L53.60 7.29L53.60 7.29Q54.08 6.79 54.70 6.52L54.70 6.52L54.70 6.52Q55.31 6.26 55.99 6.29L55.99 6.29L55.99 6.29Q56.69 6.31 57.09 6.58L57.09 6.58L57.09 6.58Q57.48 6.85 57.66 7.20L57.66 7.20L57.66 7.20Q57.83 7.55 57.83 7.90L57.83 7.90L57.83 7.90Q57.82 8.26 57.69 8.48L57.69 8.48L57.69 8.48Q57.46 8.15 57.03 8.03L57.03 8.03L57.03 8.03Q56.60 7.91 56.22 7.91L56.22 7.91L56.22 7.91Q55.59 7.91 55.17 8.22L55.17 8.22L55.17 8.22Q54.74 8.53 54.52 8.99L54.52 8.99L54.52 8.99Q54.31 9.45 54.31 9.99L54.31 9.99L54.31 9.99Q54.31 10.53 54.52 10.99L54.52 10.99L54.52 10.99Q54.73 11.45 55.15 11.76L55.15 11.76L55.15 11.76Q55.57 12.07 56.21 12.07L56.21 12.07L56.21 12.07Q56.76 12.07 57.11 11.82L57.11 11.82L57.11 11.82Q57.47 11.58 57.68 11.19L57.68 11.19L57.68 11.19Q57.89 10.79 57.98 10.31L57.98 10.31L57.98 10.31Q58.07 9.83 58.07 9.35L58.07 9.35L58.07 3.74L58.07 3.74Q58.90 3.77 59.37 4.19L59.37 4.19L59.37 4.19Q59.84 4.61 59.84 5.17L59.84 5.17L59.84 13.51L58.07 13.51Z"></path></g><!----><!----></svg>